<svg width="34" height="35" viewBox="0 0 34 35" fill="none" xmlns="http://www.w3.org/2000/svg">
<path d="M5.3125 4.75C5.03071 4.75 4.76046 4.86194 4.5612 5.0612C4.36194 5.26046 4.25 5.53071 4.25 5.8125C4.25 6.09429 4.36194 6.36454 4.5612 6.5638C4.76046 6.76306 5.03071 6.875 5.3125 6.875H5.83525C6.06596 6.8754 6.29028 6.95088 6.4743 7.09005C6.65831 7.22921 6.79203 7.42449 6.85525 7.64637L10.2255 19.4401C10.4161 20.1057 10.8182 20.6911 11.3711 21.1078C11.9239 21.5246 12.5974 21.75 13.2898 21.75H22.9989C23.636 21.7501 24.2586 21.5592 24.7863 21.2021C25.3139 20.8449 25.7224 20.3377 25.959 19.7461L29.0912 11.9134C29.22 11.5911 29.2679 11.2421 29.2306 10.8971C29.1934 10.552 29.0722 10.2213 28.8777 9.93385C28.6831 9.64643 28.4211 9.41103 28.1146 9.24824C27.8081 9.08545 27.4663 9.00022 27.1192 9H9.452L8.89737 7.062C8.70724 6.39639 8.3056 5.81077 7.75315 5.39366C7.2007 4.97654 6.52748 4.7506 5.83525 4.75H5.3125ZM12.2698 18.8536L10.0598 11.125H27.1192L23.9849 18.9577C23.9059 19.1547 23.7698 19.3235 23.5941 19.4424C23.4184 19.5614 23.2111 19.625 22.9989 19.625H13.2898C13.059 19.6246 12.8347 19.5491 12.6507 19.41C12.4667 19.2708 12.333 19.0755 12.2698 18.8536ZM13.8125 30.25C14.2311 30.25 14.6456 30.1676 15.0323 30.0074C15.419 29.8472 15.7704 29.6124 16.0664 29.3164C16.3624 29.0204 16.5972 28.669 16.7574 28.2823C16.9176 27.8956 17 27.4811 17 27.0625C17 26.6439 16.9176 26.2294 16.7574 25.8427C16.5972 25.456 16.3624 25.1046 16.0664 24.8086C15.7704 24.5126 15.419 24.2778 15.0323 24.1176C14.6456 23.9574 14.2311 23.875 13.8125 23.875C12.9671 23.875 12.1564 24.2108 11.5586 24.8086C10.9608 25.4064 10.625 26.2171 10.625 27.0625C10.625 27.9079 10.9608 28.7186 11.5586 29.3164C12.1564 29.9142 12.9671 30.25 13.8125 30.25ZM13.8125 28.125C13.5307 28.125 13.2605 28.0131 13.0612 27.8138C12.8619 27.6145 12.75 27.3443 12.75 27.0625C12.75 26.7807 12.8619 26.5105 13.0612 26.3112C13.2605 26.1119 13.5307 26 13.8125 26C14.0943 26 14.3645 26.1119 14.5638 26.3112C14.7631 26.5105 14.875 26.7807 14.875 27.0625C14.875 27.3443 14.7631 27.6145 14.5638 27.8138C14.3645 28.0131 14.0943 28.125 13.8125 28.125ZM22.3125 30.25C22.7311 30.25 23.1456 30.1676 23.5323 30.0074C23.919 29.8472 24.2704 29.6124 24.5664 29.3164C24.8624 29.0204 25.0972 28.669 25.2574 28.2823C25.4176 27.8956 25.5 27.4811 25.5 27.0625C25.5 26.6439 25.4176 26.2294 25.2574 25.8427C25.0972 25.456 24.8624 25.1046 24.5664 24.8086C24.2704 24.5126 23.919 24.2778 23.5323 24.1176C23.1456 23.9574 22.7311 23.875 22.3125 23.875C21.4671 23.875 20.6564 24.2108 20.0586 24.8086C19.4608 25.4064 19.125 26.2171 19.125 27.0625C19.125 27.9079 19.4608 28.7186 20.0586 29.3164C20.6564 29.9142 21.4671 30.25 22.3125 30.25ZM22.3125 28.125C22.0307 28.125 21.7605 28.0131 21.5612 27.8138C21.3619 27.6145 21.25 27.3443 21.25 27.0625C21.25 26.7807 21.3619 26.5105 21.5612 26.3112C21.7605 26.1119 22.0307 26 22.3125 26C22.5943 26 22.8645 26.1119 23.0638 26.3112C23.2631 26.5105 23.375 26.7807 23.375 27.0625C23.375 27.3443 23.2631 27.6145 23.0638 27.8138C22.8645 28.0131 22.5943 28.125 22.3125 28.125Z" fill="white"/>
</svg>
