<svg width="60" height="61" viewBox="0 0 60 61" fill="none" xmlns="http://www.w3.org/2000/svg">
<path d="M51.6756 10.3271L56.5143 5.00383C56.9454 4.51787 57.1676 3.88157 57.1327 3.23288C57.0978 2.58419 56.8087 1.9754 56.3279 1.5385C55.8471 1.10159 55.2136 0.871789 54.5645 0.898907C53.9154 0.926025 53.3032 1.20788 52.8606 1.68336L48.0218 7.00352C42.1302 2.47867 34.753 0.333753 27.3537 0.994302C19.9544 1.65485 13.0738 5.0726 8.0768 10.5695C3.07983 16.0664 0.331665 23.2408 0.377518 30.6693C0.42337 38.0979 3.25989 45.2378 8.32433 50.6726L3.48558 55.9959C3.26298 56.235 3.09006 56.5159 2.97683 56.8223C2.8636 57.1288 2.81231 57.4547 2.82595 57.7811C2.83959 58.1075 2.91788 58.4279 3.05627 58.7239C3.19467 59.0198 3.39043 59.2853 3.6322 59.505C3.87397 59.7247 4.15694 59.8943 4.46472 60.0038C4.77249 60.1134 5.09895 60.1607 5.42517 60.1432C5.75139 60.1256 6.07089 60.0435 6.36513 59.9016C6.65938 59.7596 6.92253 59.5607 7.13933 59.3163L11.9781 53.9962C17.8697 58.521 25.247 60.6659 32.6462 60.0054C40.0455 59.3448 46.9262 55.9271 51.9231 50.4302C56.9201 44.9333 59.6683 37.7589 59.6224 30.3304C59.5765 22.9018 56.74 15.7619 51.6756 10.3271ZM5.31246 30.4999C5.3152 25.9294 6.58663 21.4495 8.98514 17.559C11.3836 13.6685 14.8151 10.5202 18.8972 8.4647C22.9793 6.40923 27.5519 5.5273 32.1057 5.91715C36.6595 6.30699 41.0157 7.9533 44.689 10.6727L11.6695 47.0034C7.57568 42.4819 5.3098 36.5994 5.31246 30.4999ZM30 55.1873C24.7077 55.1929 19.5553 53.4881 15.3109 50.327L48.3304 13.9963C51.525 17.5402 53.6234 21.9345 54.3716 26.6467C55.1197 31.359 54.4854 36.1871 52.5456 40.5462C50.6057 44.9053 47.4435 48.6085 43.442 51.2071C39.4404 53.8057 34.7712 55.1883 30 55.1873Z" fill="white"/>
</svg>
