<svg width="34" height="35" viewBox="0 0 34 35" fill="none" xmlns="http://www.w3.org/2000/svg">
<path d="M9.20833 5.81245C8.46317 5.81245 7.4375 6.70495 7.4375 8.3922V26.6091C7.4375 28.2978 8.46317 29.1889 9.20833 29.1889H19.1193C19.4011 29.1889 19.6714 29.3008 19.8706 29.5001C20.0699 29.6993 20.1818 29.9696 20.1818 30.2514C20.1818 30.5332 20.0699 30.8034 19.8706 31.0027C19.6714 31.2019 19.4011 31.3139 19.1193 31.3139H9.20833C6.82408 31.3139 5.3125 28.9438 5.3125 26.6091V8.39079C5.3125 6.05612 6.82408 3.68604 9.20833 3.68604H19.125C19.4068 3.68604 19.677 3.79798 19.8763 3.99723C20.0756 4.19649 20.1875 4.46674 20.1875 4.74854C20.1875 5.03033 20.0756 5.30058 19.8763 5.49984C19.677 5.69909 19.4068 5.81104 19.125 5.81104L9.20833 5.81245Z" fill="white"/>
<path d="M23.4172 11.7907C23.218 11.5917 22.9479 11.48 22.6663 11.48C22.3848 11.48 22.1147 11.5917 21.9155 11.7907V16.4317H13.458C13.1762 16.4317 12.906 16.5437 12.7067 16.7429C12.5074 16.9422 12.3955 17.2124 12.3955 17.4942C12.3955 17.776 12.5074 18.0463 12.7067 18.2455C12.906 18.4448 13.1762 18.5567 13.458 18.5567H21.9155V23.209C22.1147 23.408 22.3848 23.5198 22.6663 23.5198C22.9479 23.5198 23.218 23.408 23.4172 23.209L28.3755 18.2507C28.4745 18.1518 28.553 18.0343 28.6065 17.905C28.66 17.7756 28.6874 17.637 28.6872 17.497V17.4942C28.6871 17.3388 28.6529 17.1854 28.5871 17.0446C28.5212 16.9039 28.4253 16.7793 28.3061 16.6796L23.4172 11.7907Z" fill="white"/>
</svg>
