<svg width="34" height="35" viewBox="0 0 34 35" fill="none" xmlns="http://www.w3.org/2000/svg">
<path d="M10.625 10.0625H29.75M10.625 17.5H29.75M10.625 24.9375H29.75" stroke="white" stroke-width="2" stroke-linecap="round" stroke-linejoin="round"/>
<path d="M5.3125 11.125C5.8993 11.125 6.375 10.6493 6.375 10.0625C6.375 9.4757 5.8993 9 5.3125 9C4.7257 9 4.25 9.4757 4.25 10.0625C4.25 10.6493 4.7257 11.125 5.3125 11.125Z" fill="white" stroke="white" stroke-width="2" stroke-linecap="round" stroke-linejoin="round"/>
<path d="M5.3125 18.5625C5.8993 18.5625 6.375 18.0868 6.375 17.5C6.375 16.9132 5.8993 16.4375 5.3125 16.4375C4.7257 16.4375 4.25 16.9132 4.25 17.5C4.25 18.0868 4.7257 18.5625 5.3125 18.5625Z" fill="white" stroke="white" stroke-width="2" stroke-linecap="round" stroke-linejoin="round"/>
<path d="M5.3125 26C5.8993 26 6.375 25.5243 6.375 24.9375C6.375 24.3507 5.8993 23.875 5.3125 23.875C4.7257 23.875 4.25 24.3507 4.25 24.9375C4.25 25.5243 4.7257 26 5.3125 26Z" fill="white" stroke="white" stroke-width="2" stroke-linecap="round" stroke-linejoin="round"/>
</svg>
